<svg width="38" height="38" viewBox="0 0 38 38" fill="none" xmlns="http://www.w3.org/2000/svg">
<path d="M32.435 5.56496C28.8465 1.97636 24.075 0 19 0C13.925 0 9.15355 1.97636 5.56496 5.56496C1.97636 9.15355 0 13.925 0 19C0 24.075 1.97636 28.8465 5.56496 32.435C9.15355 36.0236 13.925 38 19 38C22.4744 38 25.8739 37.0531 28.8311 35.2617C29.5324 34.837 29.7565 33.9243 29.3318 33.2233C28.907 32.522 27.9941 32.2979 27.2931 32.7226C24.7998 34.2328 21.9319 35.0312 19 35.0312C10.6608 35.0312 3.78951 28.6308 3.03804 20.4844H12.4867C13.1637 23.4554 15.8269 25.6797 19 25.6797C22.1731 25.6797 24.8363 23.4554 25.5133 20.4844H34.9617C34.7147 23.1189 33.8116 25.6562 32.313 27.8978C31.8572 28.5791 32.0405 29.5011 32.7221 29.9568C33.4034 30.4123 34.3253 30.2291 34.7811 29.5478C36.8867 26.3978 38 22.7504 38 19C38 13.925 36.0236 9.15355 32.435 5.56496ZM19 2.96875C27.3392 2.96875 34.2105 9.36925 34.962 17.5156H25.5133C24.8363 14.5446 22.1731 12.3203 19 12.3203C15.8269 12.3203 13.1637 14.5446 12.4867 17.5156H3.03804C3.78951 9.36925 10.6608 2.96875 19 2.96875ZM19 22.7109C16.9538 22.7109 15.2891 21.0462 15.2891 19C15.2891 16.9538 16.9538 15.2891 19 15.2891C21.0462 15.2891 22.7109 16.9538 22.7109 19C22.7109 21.0462 21.0462 22.7109 19 22.7109Z" fill="white"/>
</svg>
